<?xml version="1.0" encoding="utf-8"?>
  <!-- Generator: Adobe Illustrator 22.0.1, SVG Export Plug-In . SVG Version: 6.00 Build 0)  -->
  <svg version="1.1" id="logo-devparana" xmlns="http://www.w3.org/2000/svg" xmlns:xlink="http://www.w3.org/1999/xlink" x="0px" y="0px" viewBox="0 0 300 300" style="enable-background:new 0 0 300 300;" xml:space="preserve">
    <style type="text/css">
      .st0 {
        fill: #15A04B;
      }
    </style>
    <g>
      <path class="st0" d="M290.8,132.5L167.5,9.2c-9.6-9.6-25.4-9.6-35,0L9.2,132.5c-9.6,9.6-9.6,25.4,0,35l123.3,123.3
		c2.4,2.4,5.3,4.3,8.4,5.5l0-111.2c-8.7-7.2-20.7-11.8-36.9-13.9h-0.1c-12.1-1.8-21.2-5-27.7-9.9c-8.6-6.3-12.9-15.4-12.9-27V128
		c-5.9-2-10.1-7.6-10.1-14.1c0-8.1,6.7-14.8,14.8-14.8c8.1,0,14.8,6.7,14.8,14.8c0,6.6-4.2,12.1-10.1,14.1v6.3
		c0,15.9,10,24.4,32.5,27.8c14.6,1.8,26.3,5.7,35.6,11.6v-23.3c-3.9-2.7-9-4.2-15.7-5.2c-13.9-2-20.9-8.5-20.9-19.2v-11.3
		c-6.5-1.6-11.5-7.4-11.5-14.5c0-8.1,6.7-14.7,14.8-14.7c8.1,0,14.8,6.7,14.8,14.8c0,7.1-5,13-11.5,14.5v11.3
		c0,4.9,1.7,10.7,15.2,12.7c5.8,0.7,10.7,2.1,14.8,4.1v-41.5c-5.4-3.1-9-8.9-9-15.6c0-10.1,8.2-18.2,18.2-18.2
		c10.1,0,18.2,8.2,18.2,18.2c0,6.6-3.6,12.4-9,15.6V150c4.5-2.8,10.2-4.6,17.2-5.4c10.8-1.7,15.4-5.5,15.4-12.9v-16
		c-6.6-1.4-11.7-7.4-11.7-14.5c0-8.3,6.7-15,14.8-15c8.1,0,14.8,6.7,14.8,14.9c0,7-4.9,12.8-11.3,14.4v16.1c0,10.7-7.1,17.3-21,19.4
		h-0.1c-8.1,1-14,3.3-18.2,7v7.3c4.3,3.5,10.2,5.8,18,6.8h0.1c9.9,1.5,16.2,5.2,19.2,11c22-3.5,31.8-12.1,31.8-27.7v-27.5
		c-6.1-1.9-10.4-7.7-10.4-14.2c0-8.1,6.7-14.8,14.8-14.8c4,0,7.7,1.6,10.5,4.4c2.7,2.9,4.2,6.6,4.2,10.5c0,6.5-4.1,12-9.5,14.1v27.6
		c0,11.6-4.3,20.7-12.9,27c-6.3,4.7-15,7.9-26.4,9.8v5.2c4.3,1.3,7.5,5.5,7.5,10.2s-3.2,8.8-7.5,10.2v2.4c0,10.7-7.1,17.3-21,19.4
		h-0.1c-8,1-13.8,3.2-18,6.8l0,49.7c2.9-1.2,5.7-3,8.1-5.4l123.3-123.3C300.4,157.9,300.4,142.1,290.8,132.5z" />
      <path class="st0" d="M176.1,178.6c-6.9-0.9-12.5-2.7-17.1-5.3v22.1c8-5.3,18.1-9,30.1-11.2C186.8,181.3,182.5,179.6,176.1,178.6z" />
      <path class="st0" d="M191.6,197.5v-4.2c-14,2.4-24.6,6.9-32.4,13.8v31.4c4.5-2.7,10.1-4.5,17-5.3c10.8-1.7,15.3-5.5,15.4-12.9v-2.4
		c-4.3-1.3-7.5-5.3-7.5-10.2C184.1,203,187.3,198.9,191.6,197.5z" />
      <path class="st0" d="M149.8,72.8c-7,0-12.7,5.7-12.7,12.8c0,7,5.7,12.7,12.7,12.7s12.7-5.8,12.7-12.8
		C162.5,78.5,156.8,72.8,149.8,72.8z" />
      <path class="st0" d="M241.9,113.7c0-2.4-0.8-4.7-2.6-6.5c-1.8-1.7-4.2-2.7-6.7-2.7c-5.1,0-9.3,4.2-9.3,9.3c0,5.1,4.1,9.3,9.3,9.3
		C237.7,123.1,241.9,118.9,241.9,113.7z" />

      <ellipse transform="matrix(0.7071 -0.7071 0.7071 0.7071 -39.437 105.2304)" class="st0" cx="107.3" cy="100.2" rx="9.3" ry="9.3" />
      <ellipse transform="matrix(0.7071 -0.7071 0.7071 0.7071 -60.5523 81.2538)" class="st0" cx="67.8" cy="113.7" rx="9.3" ry="9.3" />
      <path class="st0" d="M204,101.2c0-5.2-4.1-9.4-9.3-9.4c-5.1,0-9.3,4.2-9.3,9.4c0,5,4.3,9.3,9.3,9.3
		C199.8,110.5,204,106.4,204,101.2z" />
    </g>
  </svg>
